M48
; DRILL file {KiCad 5.1.6} date Mon Sep 21 15:10:56 2020
; FORMAT={-:-/ absolute / inch / decimal}
; #@! TF.CreationDate,2020-09-21T15:10:56+01:00
; #@! TF.GenerationSoftware,Kicad,Pcbnew,5.1.6
; #@! TF.FileFunction,Plated,1,2,PTH
FMAT,2
INCH
T1C0.0157
T2C0.0236
T3C0.0315
T4C0.0319
T5C0.0335
T6C0.0354
T7C0.0433
T8C0.0512
T9C0.0591
%
G90
G05
T1
X3.03Y-3.505
X3.1Y-2.48
X3.11Y-3.185
X3.16Y-3.12
X3.23Y-2.67
X3.24Y-1.8
X3.275Y-3.18
X3.635Y-1.72
X3.78Y-3.25
X4.03Y-3.42
X4.09Y-2.74
X4.18Y-3.06
X4.335Y-3.215
X4.42Y-2.43
X4.43Y-2.91
X4.48Y-4.56
X4.5Y-2.905
X4.575Y-2.825
X4.575Y-2.905
X4.575Y-3.21
X4.5807Y-4.3441
X4.585Y-3.71
X4.665Y-2.655
X4.7Y-2.9036
X4.83Y-2.6
X4.875Y-2.905
X4.905Y-2.755
X4.99Y-3.02
X5.04Y-3.02
X5.125Y-2.645
X5.215Y-4.345
X5.22Y-3.0
X5.265Y-2.6
X5.275Y-4.375
X5.335Y-4.225
X5.335Y-4.345
X5.405Y-2.005
X5.425Y-3.05
X5.44Y-3.165
X5.445Y-3.33
X5.47Y-2.23
X5.5Y-3.11
X5.525Y-4.105
X5.565Y-2.4775
X5.5652Y-4.3879
X5.57Y-2.97
X5.585Y-2.225
X5.615Y-3.01
X5.66Y-3.46
X5.67Y-4.555
X5.685Y-4.035
X5.72Y-3.17
X5.74Y-4.395
X5.755Y-4.02
X5.885Y-2.475
X5.895Y-3.23
X5.905Y-3.525
X5.935Y-3.69
X6.03Y-2.565
X6.03Y-3.9
X6.04Y-2.84
X6.07Y-2.245
X6.075Y-2.715
X6.08Y-2.55
X6.12Y-2.78
X6.12Y-4.105
X6.18Y-3.345
X6.21Y-3.175
X6.22Y-4.025
X6.225Y-3.321
X6.365Y-2.245
X6.38Y-2.98
X6.44Y-2.7461
X6.44Y-2.865
X6.455Y-2.24
X6.455Y-3.075
X6.465Y-4.0
X6.48Y-2.3611
X6.6175Y-3.3225
X6.625Y-3.48
X6.74Y-3.09
X6.785Y-4.115
X6.885Y-3.12
X7.24Y-2.73
X7.38Y-3.36
X7.44Y-3.12
X7.69Y-2.45
T2
X4.23Y-2.79
X4.3087Y-2.79
X6.9113Y-2.63
X6.99Y-2.63
X5.57Y-3.915
X5.6487Y-3.915
X3.85Y-4.025
X3.85Y-4.1037
X6.9213Y-2.88
X7.0Y-2.88
X5.57Y-4.225
X5.6487Y-4.225
T3
X5.855Y-2.58
X6.155Y-2.58
X5.98Y-4.24
X5.98Y-4.54
X7.51Y-2.55
X7.51Y-2.85
X6.64Y-4.25
X6.64Y-4.55
X6.38Y-4.1
X6.68Y-4.1
X7.1Y-2.7
X7.4Y-2.7
X6.26Y-3.38
X6.56Y-3.38
X4.9824Y-2.4743
X4.9824Y-2.7743
X5.0824Y-2.4743
X5.0824Y-2.7743
X5.1824Y-2.4743
X5.1824Y-2.7743
X5.2824Y-2.4743
X5.2824Y-2.7743
X5.89Y-3.3363
X5.89Y-3.415
X4.35Y-4.3031
X4.35Y-4.5
X3.6473Y-2.8903
X3.6473Y-2.9903
X3.6473Y-3.0903
X3.6473Y-3.1903
X3.9473Y-2.8903
X3.9473Y-2.9903
X3.9473Y-3.0903
X3.9473Y-3.1903
X6.271Y-2.6229
X6.271Y-2.7229
X6.271Y-2.8229
X6.271Y-2.9229
X6.271Y-3.0229
X6.271Y-3.1229
X6.271Y-3.2229
X6.571Y-2.6229
X6.571Y-2.7229
X6.571Y-2.8229
X6.571Y-2.9229
X6.571Y-3.0229
X6.571Y-3.1229
X6.571Y-3.2229
X3.4491Y-2.6063
X3.4491Y-2.9063
X4.125Y-3.265
X4.425Y-3.265
X4.95Y-4.2
X4.95Y-4.3
X4.95Y-4.4
X7.51Y-2.96
X7.51Y-3.06
X7.51Y-3.16
X6.49Y-3.615
X6.49Y-3.715
X6.49Y-3.815
X4.05Y-4.3031
X4.05Y-4.5
X7.1Y-2.83
X7.4Y-2.83
X6.695Y-2.99
X6.695Y-3.29
X5.13Y-4.215
X5.43Y-4.215
X3.318Y-2.6056
X3.318Y-2.9056
X6.07Y-3.96
X6.37Y-3.96
X3.9433Y-2.4491
X3.9433Y-2.7491
X4.22Y-2.99
X4.3184Y-2.99
X4.02Y-4.14
X4.32Y-4.14
X4.2Y-4.25
X4.2Y-4.55
X3.4203Y-3.0766
X3.499Y-3.0766
X6.13Y-3.615
X6.13Y-3.715
X6.13Y-3.815
X6.48Y-4.31
X6.48Y-4.5069
X4.83Y-2.74
X4.83Y-3.04
X5.86Y-2.97
X6.16Y-2.97
X3.9Y-4.25
X3.9Y-4.55
X4.7008Y-3.8289
X4.7008Y-3.9667
X2.8018Y-2.9608
X3.1018Y-2.9608
X6.75Y-2.735
X6.75Y-2.8137
X3.82Y-3.4
X3.9184Y-3.4
X5.43Y-2.71
X5.73Y-2.71
X4.9781Y-2.8711
X4.9781Y-3.1711
X5.0781Y-2.8711
X5.0781Y-3.1711
X5.1781Y-2.8711
X5.1781Y-3.1711
X5.2781Y-2.8711
X5.2781Y-3.1711
X6.325Y-3.615
X6.325Y-3.715
X6.325Y-3.815
X7.715Y-2.83
X7.715Y-2.9087
X4.13Y-2.6
X4.43Y-2.6
X5.86Y-2.71
X6.16Y-2.71
X2.7972Y-2.6224
X2.8956Y-2.6224
X5.43Y-2.84
X5.73Y-2.84
X5.91Y-3.11
X6.1069Y-3.11
X4.12Y-3.12
X4.42Y-3.12
X5.135Y-4.345
X5.435Y-4.345
X5.125Y-4.085
X5.425Y-4.085
X3.75Y-4.25
X3.75Y-4.55
X2.645Y-4.265
X2.8419Y-4.265
X4.7Y-2.74
X4.7Y-3.04
X5.86Y-2.84
X6.16Y-2.84
X2.8005Y-2.8378
X3.1005Y-2.8378
X4.7025Y-3.4438
X4.7025Y-3.5816
X3.0779Y-2.6306
X3.1566Y-2.6306
X5.43Y-2.58
X5.73Y-2.58
X6.27Y-2.465
X6.57Y-2.465
X7.1Y-2.57
X7.4Y-2.57
X4.95Y-3.8
X4.95Y-4.1
X5.84Y-4.2931
X5.84Y-4.49
X3.6224Y-2.6038
X3.7208Y-2.6038
X6.14Y-4.3
X6.14Y-4.4
X6.14Y-4.5
X5.795Y-3.61
X5.795Y-3.91
X6.125Y-3.2481
X6.125Y-3.445
X5.125Y-3.95
X5.425Y-3.95
X6.78Y-4.25
X6.78Y-4.55
X7.05Y-3.02
X7.35Y-3.02
X5.935Y-3.61
X5.935Y-3.91
X3.875Y-3.525
X3.875Y-3.825
X6.33Y-4.25
X6.33Y-4.55
T4
X5.9956Y-4.9388
X5.9956Y-5.2388
X6.4956Y-4.9388
X6.4956Y-5.2388
X3.8961Y-4.9257
X3.8961Y-5.2257
X4.3961Y-4.9257
X4.3961Y-5.2257
T5
X7.3692Y-1.6254
X7.4975Y-1.6253
X6.3586Y-1.6257
X7.3023Y-4.5592
X4.4294Y-1.6333
X2.7076Y-4.5593
X2.8893Y-1.6257
X7.8154Y-4.5594
X5.1421Y-4.5592
X3.2206Y-4.5595
X3.4713Y-1.6258
X7.1739Y-4.5592
X7.4304Y-4.559
X3.0922Y-4.5595
X5.2703Y-4.5592
X2.8358Y-4.5595
X7.5586Y-4.5591
X2.5792Y-4.5592
X3.3428Y-1.6255
X5.1283Y-1.6342
X5.2568Y-1.6343
X2.964Y-4.5595
X5.3984Y-4.5594
X4.9996Y-1.6341
X3.0179Y-1.6258
X4.3006Y-1.6333
X6.4872Y-1.6257
X4.8857Y-4.5591
X5.527Y-4.5594
X5.0139Y-4.5591
X7.687Y-4.5592
T6
X4.1908Y-3.4755
X4.1908Y-3.5755
X5.325Y-3.525
X5.425Y-3.525
X4.1891Y-3.8574
X4.1891Y-3.9574
X4.925Y-3.525
X5.025Y-3.525
T7
X2.8113Y-1.8374
X2.8113Y-2.2374
T8
X4.3102Y-2.4086
X4.507Y-2.4086
X4.7039Y-2.4086
X6.9125Y-2.4091
X7.1093Y-2.4091
X7.3062Y-2.4091
X5.6113Y-2.4088
X5.8081Y-2.4088
X6.005Y-2.4088
X3.0092Y-2.4083
X3.2061Y-2.4083
X3.4029Y-2.4083
T9
X6.7692Y-3.6065
X6.7692Y-3.8325
X6.8822Y-3.4104
X6.8822Y-4.0286
X7.0782Y-3.2975
X7.0782Y-4.1415
X7.1155Y-3.5882
X7.1155Y-3.8508
X7.3042Y-3.2975
X7.3042Y-4.1415
X7.3428Y-3.7195
X7.5003Y-3.4104
X7.5003Y-4.0286
X7.6133Y-3.6065
X7.6133Y-3.8325
X2.7864Y-3.6088
X2.7864Y-3.8348
X2.8993Y-3.4127
X2.8993Y-4.0309
X3.0771Y-3.7976
X3.0954Y-3.2998
X3.0954Y-4.1438
X3.2084Y-3.5702
X3.3214Y-3.2998
X3.3214Y-4.1438
X3.3397Y-3.7976
X3.5175Y-3.4127
X3.5175Y-4.0309
X3.6304Y-3.6088
X3.6304Y-3.8348
T0
M30
