M48
; DRILL file {KiCad 5.1.6} date Wed Sep  9 18:38:47 2020
; FORMAT={-:-/ absolute / inch / decimal}
; #@! TF.CreationDate,2020-09-09T18:38:47+01:00
; #@! TF.GenerationSoftware,Kicad,Pcbnew,5.1.6
; #@! TF.FileFunction,Plated,1,2,PTH
FMAT,2
INCH
T1C0.0157
T2C0.0217
T3C0.0236
T4C0.0315
T5C0.0319
T6C0.0335
T7C0.0354
T8C0.0433
T9C0.0512
T10C0.0591
%
G90
G05
T1
X2.595Y-3.815
X2.714Y-2.696
X2.764Y-4.038
X2.838Y-2.66
X2.888Y-2.9185
X2.91Y-3.038
X2.94Y-1.72
X3.134Y-3.024
X3.352Y-3.324
X3.392Y-3.296
X3.474Y-3.888
X3.476Y-3.13
X3.524Y-2.24
X3.562Y-3.296
X3.726Y-2.494
X3.7298Y-2.5638
X3.796Y-2.464
X3.816Y-3.062
X3.816Y-3.168
X3.85Y-2.51
X3.896Y-3.442
X3.922Y-2.974
X3.944Y-3.276
X3.968Y-2.738
X3.968Y-3.888
X3.97Y-2.872
X3.97Y-2.944
X4.032Y-1.756
X4.052Y-2.818
X4.11Y-3.228
X4.13Y-3.336
X4.154Y-4.114
X4.184Y-3.682
X4.192Y-3.25
X4.196Y-3.034
X4.2Y-4.156
X4.286Y-3.014
X4.332Y-3.536
X4.404Y-4.174
X4.55Y-2.268
X4.578Y-3.072
X4.696Y-4.174
X4.726Y-3.322
X4.808Y-2.606
X4.85Y-2.674
X4.952Y-2.946
X4.97Y-2.862
X5.012Y-2.438
X5.032Y-2.938
X5.068Y-2.408
X5.334Y-2.486
X5.454Y-2.178
X5.52Y-1.798
X5.536Y-3.422
X5.63Y-2.412
X5.638Y-1.872
X5.69Y-3.208
X5.764Y-3.092
X5.816Y-3.038
X5.9Y-1.87
X5.916Y-3.594
X6.042Y-3.412
X6.198Y-3.662
X7.044Y-2.02
X8.13Y-2.108
T2
X3.328Y-3.574
X3.328Y-3.7236
X3.9186Y-3.5488
X3.9186Y-3.7488
X3.874Y-3.218
X3.874Y-3.3676
X4.4646Y-3.1928
X4.4646Y-3.3928
T3
X2.1913Y-2.386
X2.27Y-2.386
X2.1953Y-2.624
X2.274Y-2.624
X6.344Y-3.722
X6.344Y-3.8007
X4.414Y-3.692
X4.414Y-3.7707
X4.58Y-2.136
X4.6587Y-2.136
X4.59Y-2.376
X4.6687Y-2.376
T4
X5.264Y-4.192
X5.564Y-4.192
X2.52Y-2.0
X2.82Y-2.0
X6.67Y-2.84
X6.97Y-2.84
X2.788Y-2.256
X2.788Y-2.356
X2.788Y-2.456
X6.826Y-2.2373
X6.826Y-2.316
X6.596Y-2.1351
X6.596Y-2.332
X6.4Y-2.27
X6.4Y-2.57
X7.47Y-2.626
X7.77Y-2.626
X5.252Y-3.756
X5.252Y-3.856
X5.252Y-3.956
X5.252Y-4.056
X5.552Y-3.756
X5.552Y-3.856
X5.552Y-3.956
X5.552Y-4.056
X3.604Y-2.592
X3.604Y-2.892
X4.166Y-2.134
X4.466Y-2.134
X8.302Y-2.196
X8.302Y-2.496
X5.204Y-1.928
X5.204Y-2.228
X5.304Y-1.928
X5.304Y-2.228
X5.404Y-1.928
X5.404Y-2.228
X5.504Y-1.928
X5.504Y-2.228
X5.812Y-3.956
X6.112Y-3.956
X7.88Y-1.988
X8.18Y-1.988
X5.056Y-1.922
X5.056Y-2.222
X4.046Y-2.022
X4.046Y-2.322
X5.212Y-3.044
X5.512Y-3.044
X7.764Y-2.192
X7.764Y-2.492
X4.636Y-3.73
X4.7344Y-3.73
X4.9913Y-3.422
X5.07Y-3.422
X6.544Y-3.0631
X6.544Y-3.26
X2.546Y-2.32
X2.546Y-2.62
X7.628Y-2.192
X7.628Y-2.492
X7.88Y-2.15
X7.88Y-2.25
X7.88Y-2.35
X7.88Y-2.45
X7.88Y-2.55
X7.88Y-2.65
X7.88Y-2.75
X8.18Y-2.15
X8.18Y-2.25
X8.18Y-2.35
X8.18Y-2.45
X8.18Y-2.55
X8.18Y-2.65
X8.18Y-2.75
X7.48Y-2.062
X7.78Y-2.062
X5.726Y-3.444
X5.8244Y-3.444
X5.69Y-2.492
X5.69Y-2.792
X6.634Y-2.502
X6.634Y-2.602
X6.634Y-2.702
X7.49Y-2.196
X7.49Y-2.496
X2.394Y-2.316
X2.394Y-2.616
X7.022Y-2.502
X7.022Y-2.602
X7.022Y-2.702
X5.4Y-3.282
X5.4Y-3.582
X4.442Y-2.424
X4.442Y-2.724
X6.82Y-3.054
X6.82Y-3.354
X4.776Y-3.942
X5.076Y-3.942
X6.212Y-3.956
X6.512Y-3.956
X3.182Y-2.592
X3.182Y-2.892
X6.266Y-3.2291
X6.266Y-3.426
X7.876Y-2.902
X8.0729Y-2.902
X7.25Y-2.582
X7.25Y-2.6607
X4.928Y-1.922
X4.928Y-2.222
X6.404Y-2.752
X6.404Y-2.852
X6.404Y-2.952
X6.846Y-2.502
X6.846Y-2.602
X6.846Y-2.702
X4.166Y-2.264
X4.466Y-2.264
X3.462Y-2.656
X3.462Y-2.8529
X2.974Y-1.966
X2.974Y-2.266
X3.308Y-2.592
X3.308Y-2.892
X4.068Y-2.492
X4.068Y-2.592
X4.068Y-2.692
X5.764Y-1.946
X5.764Y-2.0444
X5.528Y-3.282
X5.528Y-3.582
X8.406Y-1.9413
X8.406Y-2.02
X5.268Y-3.282
X5.268Y-3.582
X2.52Y-2.124
X2.82Y-2.124
X2.616Y-4.146
X2.8129Y-4.146
X5.206Y-2.368
X5.206Y-2.668
X5.306Y-2.368
X5.306Y-2.668
X5.406Y-2.368
X5.406Y-2.668
X5.506Y-2.368
X5.506Y-2.668
X8.432Y-2.196
X8.432Y-2.496
X4.378Y-3.942
X4.678Y-3.942
X3.758Y-2.6671
X3.758Y-2.864
X5.026Y-2.506
X5.026Y-2.806
X5.768Y-2.2753
X5.768Y-2.354
X6.398Y-3.054
X6.398Y-3.354
X6.238Y-2.27
X6.238Y-2.57
X4.3Y-2.424
X4.3Y-2.724
X5.212Y-2.792
X5.512Y-2.792
X6.264Y-2.826
X6.264Y-3.126
X5.9036Y-3.81
X6.002Y-3.81
X6.692Y-3.054
X6.692Y-3.354
X5.212Y-2.92
X5.512Y-2.92
T5
X3.808Y-4.552
X3.808Y-4.852
X4.308Y-4.552
X4.308Y-4.852
X6.448Y-4.55
X6.448Y-4.85
X6.948Y-4.55
X6.948Y-4.85
T6
X5.664Y-1.722
X4.742Y-4.348
X4.9074Y-4.348
X5.0727Y-4.348
X8.386Y-4.336
X8.5514Y-4.336
X8.7167Y-4.336
X5.016Y-1.726
X7.088Y-1.718
X8.466Y-1.722
X2.052Y-4.344
X2.2174Y-4.344
X2.3827Y-4.344
X4.87Y-1.724
X7.402Y-4.336
X7.5674Y-4.336
X7.7327Y-4.336
X5.816Y-1.722
X7.894Y-4.336
X8.0594Y-4.336
X8.2247Y-4.336
X2.384Y-1.722
X3.048Y-4.348
X3.2134Y-4.348
X3.3787Y-4.348
X2.5546Y-4.348
X2.72Y-4.348
X2.8854Y-4.348
X3.186Y-1.72
X8.326Y-1.72
X5.24Y-4.348
X5.4054Y-4.348
X5.5707Y-4.348
X2.242Y-1.72
X7.242Y-1.718
X3.33Y-1.72
X5.742Y-4.348
X5.9074Y-4.348
X6.0727Y-4.348
X6.93Y-1.72
T7
X6.052Y-2.856
X6.052Y-2.956
X4.674Y-2.856
X4.674Y-2.956
T8
X4.796Y-1.932
X4.796Y-2.332
T9
X4.2603Y-1.858
X4.4571Y-1.858
X4.654Y-1.858
X6.0663Y-1.856
X6.2631Y-1.856
X6.46Y-1.856
X7.7883Y-1.858
X7.9851Y-1.858
X8.182Y-1.858
X2.4963Y-1.86
X2.6931Y-1.86
X2.89Y-1.86
T10
X2.286Y-3.411
X2.286Y-3.637
X2.3989Y-3.2149
X2.3989Y-3.8331
X2.5767Y-3.5998
X2.595Y-3.102
X2.595Y-3.946
X2.708Y-3.3724
X2.821Y-3.102
X2.821Y-3.946
X2.8393Y-3.5998
X3.0171Y-3.2149
X3.0171Y-3.8331
X3.13Y-3.411
X3.13Y-3.637
X7.548Y-3.413
X7.548Y-3.639
X7.6609Y-3.2169
X7.6609Y-3.8351
X7.857Y-3.104
X7.857Y-3.948
X7.8942Y-3.3947
X7.8942Y-3.6573
X8.083Y-3.104
X8.083Y-3.948
X8.1216Y-3.526
X8.2791Y-3.2169
X8.2791Y-3.8351
X8.392Y-3.413
X8.392Y-3.639
T0
M30
